<svg width="16" height="17" viewBox="0 0 16 17" fill="none" xmlns="http://www.w3.org/2000/svg">
<path d="M8 1.2019C8.86623 1.2019 9.69434 1.54005 10.3028 2.1378C10.9109 2.73511 11.25 3.54235 11.25 4.38119C11.25 5.22002 10.9109 6.02727 10.3028 6.62457C9.69434 7.22232 8.86623 7.56047 8 7.56047C7.13377 7.56047 6.30566 7.22232 5.69715 6.62457C5.0891 6.02727 4.75 5.22002 4.75 4.38119C4.75 3.54235 5.0891 2.73511 5.69715 2.1378C6.30566 1.54005 7.13377 1.2019 8 1.2019ZM8 11.0251C10.1207 11.0251 12.0028 11.4485 13.3269 12.0988C14.6994 12.773 15.25 13.5629 15.25 14.2044V15.419H0.75V14.2044C0.75 13.5629 1.30056 12.773 2.67314 12.0988C3.99716 11.4485 5.87926 11.0251 8 11.0251Z" fill="white" stroke="black" stroke-width="1.5"/>
</svg>
