<svg width="20" height="19" viewBox="0 0 20 19" fill="none" xmlns="http://www.w3.org/2000/svg">
<path d="M9 18.5227V17.0227H17.5V9.4227C17.5 8.45604 17.2917 7.52687 16.875 6.63521C16.4583 5.74354 15.9 4.95604 15.2 4.27271C14.5 3.58937 13.7 3.04354 12.8 2.63521C11.9 2.22687 10.9667 2.02271 10 2.02271C9.03333 2.02271 8.1 2.22687 7.2 2.63521C6.3 3.04354 5.5 3.58937 4.8 4.27271C4.1 4.95604 3.54167 5.74354 3.125 6.63521C2.70833 7.52687 2.5 8.45604 2.5 9.4227V15.5227H2C1.45 15.5227 0.979167 15.3269 0.5875 14.9352C0.195833 14.5435 0 14.0727 0 13.5227V11.5227C0 11.1394 0.0916668 10.8019 0.275 10.5102C0.458333 10.2185 0.7 9.98104 1 9.7977L1.075 8.4727C1.225 7.25604 1.57083 6.15604 2.1125 5.17271C2.65417 4.18937 3.32917 3.35604 4.1375 2.67271C4.94583 1.98937 5.85417 1.46021 6.8625 1.08521C7.87083 0.710205 8.91667 0.522705 10 0.522705C11.1 0.522705 12.1542 0.710205 13.1625 1.08521C14.1708 1.46021 15.075 1.99354 15.875 2.6852C16.675 3.37687 17.3458 4.21021 17.8875 5.1852C18.4292 6.1602 18.775 7.24771 18.925 8.44771L19 9.74771C19.3 9.89771 19.5417 10.1185 19.725 10.4102C19.9083 10.7019 20 11.0227 20 11.3727V13.6727C20 14.0394 19.9083 14.3644 19.725 14.6477C19.5417 14.931 19.3 15.1477 19 15.2977V17.0227C19 17.4394 18.8542 17.7935 18.5625 18.0852C18.2708 18.3769 17.9167 18.5227 17.5 18.5227H9ZM7 11.2727C6.8 11.2727 6.625 11.1977 6.475 11.0477C6.325 10.8977 6.25 10.7144 6.25 10.4977C6.25 10.2977 6.325 10.1269 6.475 9.9852C6.625 9.84354 6.80833 9.77271 7.025 9.77271C7.225 9.77271 7.39583 9.84354 7.5375 9.9852C7.67917 10.1269 7.75 10.306 7.75 10.5227C7.75 10.7227 7.67917 10.8977 7.5375 11.0477C7.39583 11.1977 7.21667 11.2727 7 11.2727ZM13 11.2727C12.8 11.2727 12.625 11.1977 12.475 11.0477C12.325 10.8977 12.25 10.7144 12.25 10.4977C12.25 10.2977 12.325 10.1269 12.475 9.9852C12.625 9.84354 12.8083 9.77271 13.025 9.77271C13.225 9.77271 13.3958 9.84354 13.5375 9.9852C13.6792 10.1269 13.75 10.306 13.75 10.5227C13.75 10.7227 13.6792 10.8977 13.5375 11.0477C13.3958 11.1977 13.2167 11.2727 13 11.2727ZM4.025 9.9727C3.95833 8.98937 4.09583 8.0977 4.4375 7.2977C4.77917 6.4977 5.2375 5.81854 5.8125 5.26021C6.3875 4.70187 7.05 4.2727 7.8 3.9727C8.55 3.6727 9.3 3.52271 10.05 3.52271C11.5667 3.52271 12.8417 4.00187 13.875 4.96021C14.9083 5.91854 15.5417 7.11437 15.775 8.5477C14.2083 8.53104 12.8292 8.1102 11.6375 7.2852C10.4458 6.46021 9.525 5.38937 8.875 4.07271C8.60833 5.42271 8.04583 6.61854 7.1875 7.6602C6.32917 8.70187 5.275 9.4727 4.025 9.9727Z" fill="black"/>
</svg>
