<svg width="22" height="20" viewBox="0 0 22 20" fill="none" xmlns="http://www.w3.org/2000/svg">
<path d="M19.4 10.9892H18.9V11.4892V18.5619C18.9 18.7626 18.8537 18.9315 18.7688 19.0401C18.7014 19.1263 18.5596 19.2407 18.2 19.2407H13.9V12.668V12.168H13.4H8.60003H8.10003V12.668V19.2407H3.80003C3.44044 19.2407 3.29862 19.1263 3.23126 19.0401C3.14638 18.9315 3.10003 18.7626 3.10003 18.5619V11.4892V10.9892H2.60003H0.847795C0.856693 10.98 0.865821 10.9706 0.875182 10.9611L10.501 1.49603L10.501 1.49608L10.5071 1.48997C10.6381 1.35663 10.8126 1.28367 11.0001 1.27231C11.1885 1.28367 11.3621 1.35613 11.4921 1.48909L11.4921 1.48915L11.4991 1.49603L21.1237 10.9599C21.1334 10.9698 21.1429 10.9796 21.1522 10.9892H19.4ZM0.595673 11.3101C0.595661 11.3101 0.595789 11.3097 0.596093 11.3089L0.595673 11.3101ZM21.4042 11.3101C21.4042 11.3101 21.4041 11.3097 21.4038 11.3088L21.4042 11.3101Z" fill="#4378B9" stroke="#4378B9"/>
</svg>
