<svg width="22" height="20" viewBox="0 0 22 20" fill="none" xmlns="http://www.w3.org/2000/svg">
<path d="M19.4 10.9894H18.9V11.4894V18.5621C18.9 18.7627 18.8537 18.9317 18.7688 19.0402C18.7014 19.1264 18.5596 19.2409 18.2 19.2409H13.9V12.6681V12.1681H13.4H8.60003H8.10003V12.6681V19.2409H3.80003C3.44044 19.2409 3.29862 19.1264 3.23126 19.0402C3.14638 18.9317 3.10003 18.7627 3.10003 18.5621V11.4894V10.9894H2.60003H0.847795C0.856693 10.9801 0.865821 10.9707 0.875182 10.9612L10.501 1.49615L10.501 1.4962L10.5071 1.49009C10.6381 1.35676 10.8126 1.28379 11.0001 1.27243C11.1885 1.28379 11.3621 1.35625 11.4921 1.48921L11.4921 1.48928L11.4991 1.49615L21.1237 10.96C21.1334 10.97 21.1429 10.9797 21.1522 10.9894H19.4ZM0.595673 11.3102C0.595661 11.3102 0.595789 11.3098 0.596093 11.309L0.595673 11.3102ZM21.4042 11.3102C21.4042 11.3103 21.4041 11.3098 21.4038 11.3089L21.4042 11.3102Z" stroke="black"/>
</svg>
