<svg width="18" height="20" viewBox="0 0 18 20" fill="none" xmlns="http://www.w3.org/2000/svg">
<path d="M1.72847 8.056C1.76467 7.60492 1.96945 7.18403 2.30202 6.87715C2.63459 6.57027 3.07054 6.39991 3.52307 6.4H14.3753C14.8278 6.39991 15.2638 6.57027 15.5963 6.87715C15.9289 7.18403 16.1337 7.60492 16.1699 8.056L16.8926 17.056C16.9124 17.3037 16.8808 17.5528 16.7997 17.7876C16.7186 18.0225 16.5897 18.238 16.4212 18.4206C16.2527 18.6032 16.0483 18.749 15.8207 18.8487C15.5931 18.9484 15.3473 18.9999 15.0989 19H2.79947C2.551 18.9999 2.30524 18.9484 2.07765 18.8487C1.85007 18.749 1.64559 18.6032 1.4771 18.4206C1.3086 18.238 1.17974 18.0225 1.09862 17.7876C1.01751 17.5528 0.985892 17.3037 1.00577 17.056L1.72847 8.056V8.056Z" stroke="white" stroke-width="2" stroke-linecap="round" stroke-linejoin="round"/>
<path d="M12.5491 9.1V4.6C12.5491 3.64522 12.1698 2.72955 11.4947 2.05442C10.8196 1.37928 9.9039 1 8.94912 1C7.99434 1 7.07867 1.37928 6.40354 2.05442C5.72841 2.72955 5.34912 3.64522 5.34912 4.6V9.1" stroke="white" stroke-width="2" stroke-linecap="round" stroke-linejoin="round"/>
</svg>
