<svg width="18" height="19" viewBox="0 0 18 19" fill="none" xmlns="http://www.w3.org/2000/svg">
<path d="M4.99737 7.65C4.63421 7.65 4.35789 7.48832 4.16842 7.16495C3.97895 6.84095 3.98684 6.52105 4.19211 6.20526L7.72105 0.45C7.91053 0.15 8.17895 0 8.52632 0C8.87368 0 9.14211 0.15 9.33158 0.45L12.8605 6.20526C13.0658 6.52105 13.0737 6.84095 12.8842 7.16495C12.6947 7.48832 12.4184 7.65 12.0553 7.65H4.99737ZM13.7368 18.0711C12.5526 18.0711 11.5459 17.6567 10.7166 16.8281C9.888 15.9988 9.47368 14.9921 9.47368 13.8079C9.47368 12.6237 9.888 11.6169 10.7166 10.7877C11.5459 9.95905 12.5526 9.54474 13.7368 9.54474C14.9211 9.54474 15.9278 9.95905 16.7571 10.7877C17.5857 11.6169 18 12.6237 18 13.8079C18 14.9921 17.5857 15.9988 16.7571 16.8281C15.9278 17.6567 14.9211 18.0711 13.7368 18.0711ZM0.947368 17.5974C0.678947 17.5974 0.454105 17.5064 0.272842 17.3245C0.0909475 17.1433 0 16.9184 0 16.65V10.9658C0 10.6974 0.0909475 10.4722 0.272842 10.2903C0.454105 10.1091 0.678947 10.0184 0.947368 10.0184H6.63158C6.9 10.0184 7.12516 10.1091 7.30705 10.2903C7.48832 10.4722 7.57895 10.6974 7.57895 10.9658V16.65C7.57895 16.9184 7.48832 17.1433 7.30705 17.3245C7.12516 17.5064 6.9 17.5974 6.63158 17.5974H0.947368ZM13.7368 16.1763C14.4 16.1763 14.9605 15.9474 15.4184 15.4895C15.8763 15.0316 16.1053 14.4711 16.1053 13.8079C16.1053 13.1447 15.8763 12.5842 15.4184 12.1263C14.9605 11.6684 14.4 11.4395 13.7368 11.4395C13.0737 11.4395 12.5132 11.6684 12.0553 12.1263C11.5974 12.5842 11.3684 13.1447 11.3684 13.8079C11.3684 14.4711 11.5974 15.0316 12.0553 15.4895C12.5132 15.9474 13.0737 16.1763 13.7368 16.1763ZM1.89474 15.7026H5.68421V11.9132H1.89474V15.7026ZM6.67895 5.75526H10.3737L8.52632 2.77105L6.67895 5.75526Z" fill="white"/>
</svg>
