<svg width="20" height="15" viewBox="0 0 20 15" fill="none" xmlns="http://www.w3.org/2000/svg">
<path d="M7.29995 8.2C9.28818 8.2 10.9 6.58822 10.9 4.6C10.9 2.61177 9.28818 1 7.29995 1C5.31173 1 3.69995 2.61177 3.69995 4.6C3.69995 6.58822 5.31173 8.2 7.29995 8.2Z" stroke="white" stroke-width="2" stroke-linecap="round" stroke-linejoin="round"/>
<path d="M12.7 8.2C13.3015 8.19997 13.8935 8.0492 14.4218 7.76146C14.95 7.47373 15.3978 7.0582 15.7241 6.55286C16.0504 6.04751 16.2449 5.46844 16.2898 4.86857C16.3346 4.2687 16.2285 3.66715 15.981 3.11887C15.7335 2.57059 15.3526 2.09308 14.873 1.72994C14.3934 1.36681 13.8305 1.12964 13.2356 1.0401C12.6408 0.950565 12.033 1.01152 11.4678 1.21738C10.9026 1.42325 10.3979 1.76747 10 2.2186M13.6 13.6C13.6 10.6174 10.7794 8.2 7.3 8.2C3.8206 8.2 1 10.6174 1 13.6H13.6Z" stroke="white" stroke-width="2" stroke-linecap="round" stroke-linejoin="round"/>
<path d="M19 13.6C19 10.6174 16.1794 8.2 12.7 8.2C11.9737 8.2 10.8073 7.9363 10 7.0885" stroke="white" stroke-width="2" stroke-linecap="round" stroke-linejoin="round"/>
</svg>
