<svg width="18" height="19" viewBox="0 0 18 19" fill="none" xmlns="http://www.w3.org/2000/svg">
<path d="M4.29286 15.0718V17.6555C4.29286 17.8588 4.24286 17.9785 4.18044 18.0621C4.16831 18.0784 4.1584 18.0897 4.15104 18.0974H0.991814C0.984456 18.0897 0.974549 18.0784 0.962416 18.0621C0.9 17.9785 0.85 17.8588 0.85 17.6555V15.0718C0.85 14.8685 0.9 14.7488 0.962416 14.6651C0.974548 14.6489 0.984456 14.6375 0.991814 14.6299H4.15104C4.1584 14.6375 4.16831 14.6489 4.18044 14.6651C4.24286 14.7488 4.29286 14.8685 4.29286 15.0718ZM4.17859 14.6299C4.17859 14.6299 4.17858 14.6299 4.17857 14.6299H4.17859ZM4.29286 8.18182V10.7656C4.29286 10.9688 4.24286 11.0886 4.18044 11.1722C4.16831 11.1884 4.1584 11.1998 4.15104 11.2074H0.991815C0.984456 11.1998 0.974549 11.1884 0.962416 11.1722C0.9 11.0886 0.85 10.9688 0.85 10.7656V8.18182C0.85 7.97854 0.9 7.85881 0.962416 7.77519C0.974549 7.75893 0.984456 7.7476 0.991814 7.73995H4.15104C4.1584 7.7476 4.16831 7.75893 4.18044 7.77519C4.24286 7.85881 4.29286 7.97854 4.29286 8.18182ZM4.17859 11.2074H4.17857H4.17859ZM4.17859 7.73995C4.17859 7.73995 4.17858 7.73995 4.17857 7.73995H4.17859ZM17.15 15.0718V17.6555C17.15 17.8588 17.1 17.9785 17.0376 18.0621C17.0255 18.0784 17.0155 18.0897 17.0082 18.0974H7.42039C7.41303 18.0897 7.40312 18.0784 7.39099 18.0621C7.32857 17.9785 7.27857 17.8588 7.27857 17.6555V15.0718C7.27857 14.8685 7.32857 14.7488 7.39099 14.6651C7.40312 14.6489 7.41303 14.6375 7.42039 14.6299H17.0082C17.0155 14.6375 17.0255 14.6489 17.0376 14.6651C17.1 14.7488 17.15 14.8685 17.15 15.0718ZM4.29286 1.29187V3.8756C4.29286 4.07887 4.24286 4.19861 4.18044 4.28223C4.16831 4.29848 4.1584 4.30982 4.15104 4.31746H0.991814C0.984456 4.30982 0.974549 4.29848 0.962416 4.28223C0.9 4.19861 0.85 4.07887 0.85 3.8756V1.29187C0.85 1.08859 0.9 0.968855 0.962416 0.885236C0.974549 0.868982 0.984456 0.857644 0.991814 0.85H4.15104C4.1584 0.857644 4.16831 0.868982 4.18044 0.885236C4.24286 0.968855 4.29286 1.08859 4.29286 1.29187ZM4.17859 4.31746H4.17857H4.17859ZM0.964267 0.85H0.964286C0.964273 0.85 0.964267 0.85 0.964267 0.85ZM17.15 8.18182V10.7656C17.15 10.9688 17.1 11.0886 17.0376 11.1722C17.0255 11.1884 17.0155 11.1998 17.0082 11.2074H7.42039C7.41303 11.1998 7.40312 11.1884 7.39099 11.1722C7.32857 11.0886 7.27857 10.9688 7.27857 10.7656V8.18182C7.27857 7.97854 7.32857 7.85881 7.39099 7.77519C7.40312 7.75893 7.41303 7.7476 7.42039 7.73995H17.0082C17.0155 7.7476 17.0255 7.75893 17.0376 7.77519C17.1 7.85881 17.15 7.97854 17.15 8.18182ZM7.39284 11.2074C7.39284 11.2074 7.39284 11.2074 7.39286 11.2074H7.39284ZM7.39284 7.73995H7.39286H7.39284ZM17.15 1.29187V3.8756C17.15 4.07887 17.1 4.19861 17.0376 4.28223C17.0255 4.29848 17.0155 4.30982 17.0082 4.31746H7.42039C7.41303 4.30982 7.40312 4.29848 7.39099 4.28223C7.32857 4.19861 7.27857 4.07887 7.27857 3.8756V1.29187C7.27857 1.08859 7.32857 0.968855 7.39099 0.885236C7.40312 0.868982 7.41303 0.857644 7.42039 0.85H17.0082C17.0155 0.857644 17.0255 0.868982 17.0376 0.885236C17.1 0.968855 17.15 1.08859 17.15 1.29187Z" stroke="white" stroke-width="1.7"/>
</svg>
